<svg width="36" height="35" viewBox="0 0 36 35" fill="none" xmlns="http://www.w3.org/2000/svg">
<g id="dollar-sign 1" clip-path="url(#clip0_416_569)">
<path id="Vector" d="M18.3499 1.4502V33.3502" stroke="#5F646C" stroke-width="2.9" stroke-linecap="round" stroke-linejoin="round"/>
<path id="Vector_2" d="M25.5999 7.25H14.7249C13.3789 7.25 12.0881 7.78469 11.1363 8.73643C10.1846 9.68818 9.6499 10.979 9.6499 12.325C9.6499 13.671 10.1846 14.9618 11.1363 15.9136C12.0881 16.8653 13.3789 17.4 14.7249 17.4H21.9749C23.3209 17.4 24.6117 17.9347 25.5635 18.8864C26.5152 19.8382 27.0499 21.129 27.0499 22.475C27.0499 23.821 26.5152 25.1118 25.5635 26.0636C24.6117 27.0153 23.3209 27.55 21.9749 27.55H9.6499" stroke="#5F646C" stroke-width="2.9" stroke-linecap="round" stroke-linejoin="round"/>
</g>
<defs>
<clipPath id="clip0_416_569">
<rect width="34.8" height="34.8" fill="white" transform="translate(0.949951)"/>
</clipPath>
</defs>
</svg>
