<svg width="137" height="27" viewBox="0 0 137 27" fill="none" xmlns="http://www.w3.org/2000/svg">
<g id="logo with type">
<path id="Vector" d="M28.4873 14.0613C28.4958 13.8755 28.5 13.6882 28.5 13.5C28.5 6.05577 22.2199 0 14.4999 0C7.68061 0 1.98509 4.72479 0.74884 10.9582C0.585678 11.7813 0.5 12.6314 0.5 13.5C0.5 13.6054 0.500745 13.711 0.503477 13.8154L1.68261 14.0716L3.48832 14.4634L9.35047 15.736L13.1603 16.5631L18.1552 17.6481L18.1535 17.6498L24.0164 18.9231C24.0104 18.9319 24.0047 18.9418 23.9988 18.9506C22.0677 22.069 18.5327 24.1613 14.4999 24.1613C9.90105 24.1613 5.94891 21.4404 4.28525 17.5801L0.937085 16.8536C2.48725 22.6806 7.98011 27 14.4999 27C19.9565 27 24.6941 23.974 27.002 19.5713C27.447 18.7246 27.8009 17.8268 28.0532 16.8902L25.1786 16.2657C25.1762 16.2755 25.1727 16.286 25.1702 16.2956L22.7143 15.7628H22.7136L19.8835 15.148C19.8869 15.1382 19.8902 15.1277 19.8937 15.1181C19.8937 15.1181 19.8939 15.1176 19.8944 15.1164C19.8951 15.1124 19.8969 15.1093 19.8979 15.1052C20.0603 14.5975 20.1477 14.0589 20.1477 13.5002C20.1477 13.0575 20.0931 12.6276 19.9888 12.2157C19.389 9.83057 17.1562 8.05369 14.5001 8.05369C11.6566 8.05369 9.29732 10.0909 8.90966 12.7308C8.90792 12.7421 8.90618 12.7526 8.90469 12.7641L3.61696 11.6158C3.6187 11.6053 3.62118 11.594 3.62292 11.5835C4.56241 6.61614 9.08226 2.83918 14.5001 2.83918C20.5709 2.83918 25.5137 7.58025 25.5556 13.4243V13.425L28.4876 14.0616L28.4873 14.0613ZM11.8001 13.359C11.8001 13.3549 11.8009 13.3518 11.8009 13.3477C11.8741 12.123 12.827 11.123 14.0573 10.9276H14.0581C14.2019 10.9041 14.3491 10.8919 14.4996 10.8919C15.0716 10.8919 15.6013 11.0646 16.0389 11.3574L16.0406 11.3582C16.7429 11.8294 17.2038 12.6135 17.2038 13.5C17.2038 13.8456 17.1341 14.1756 17.0062 14.4773C17.0054 14.4806 17.0037 14.4845 17.0019 14.4878C17.0019 14.4885 17.0012 14.4895 17.0012 14.4902C16.997 14.5 16.9927 14.5089 16.9885 14.5187L13.7993 13.8262L11.7984 13.3922C11.7991 13.381 11.7991 13.3704 11.8001 13.359Z" fill="url(#paint0_linear_71_1762)"/>
<g id="Survision">
<path d="M47.1564 15.0677C47.1564 17.5635 45.3088 18.9641 42.6768 18.9641C40.8292 18.9641 38.9641 18.2997 37.5 16.953L39.0862 14.9959C40.1843 15.9296 41.3347 16.5221 42.7291 16.5221C43.8272 16.5221 44.4895 16.0732 44.4895 15.337V15.3011C44.4895 14.6008 44.0712 14.2417 42.0319 13.703C39.5742 13.0566 37.988 12.3564 37.988 9.8605V9.82459C37.988 7.5442 39.7659 6.03591 42.2585 6.03591C44.0364 6.03591 45.5528 6.6105 46.7903 7.63398L45.3959 9.71685C44.3152 8.94475 43.252 8.4779 42.2236 8.4779C41.1952 8.4779 40.6549 8.96271 40.6549 9.5732V9.60912C40.6549 10.4351 41.1778 10.7044 43.2869 11.261C45.762 11.9254 47.1564 12.8412 47.1564 15.0318V15.0677Z" fill="#EF4D25"/>
<path d="M59.9267 13.308C59.9267 17.1146 57.8525 18.982 54.5756 18.982C51.2987 18.982 49.2942 17.0967 49.2942 13.3978V6.21547H51.9784V13.326C51.9784 15.3729 52.972 16.4323 54.6104 16.4323C56.2489 16.4323 57.2424 15.4088 57.2424 13.4157V6.21547H59.9267V13.308Z" fill="#EF4D25"/>
<path d="M73.2061 18.7845H70.0686L67.4541 14.7624H65.345V18.7845H62.6608V6.21547H68.2385C71.1145 6.21547 72.8401 7.77762 72.8401 10.3633V10.3992C72.8401 12.4282 71.7768 13.703 70.2255 14.2956L73.2061 18.7845ZM70.1209 10.5428V10.5069C70.1209 9.32182 69.3191 8.71133 68.0119 8.71133H65.345V12.3204H68.0642C69.3714 12.3204 70.1209 11.6022 70.1209 10.5428Z" fill="#EF4D25"/>
<path d="M86.1067 6.21547L81.1739 18.8743H78.8034L73.8706 6.21547H76.8338L80.0235 15.0677L83.2133 6.21547H86.1067Z" fill="#EF4D25"/>
<path d="M90.7954 18.7845H88.1112V6.21547H90.7954V18.7845Z" fill="#EF4D25"/>
<path d="M102.664 15.0677C102.664 17.5635 100.817 18.9641 98.1848 18.9641C96.3372 18.9641 94.4721 18.2997 93.008 16.953L94.5942 14.9959C95.6923 15.9296 96.8427 16.5221 98.2371 16.5221C99.3352 16.5221 99.9976 16.0732 99.9976 15.337V15.3011C99.9976 14.6008 99.5792 14.2417 97.5399 13.703C95.0822 13.0566 93.4961 12.3564 93.4961 9.8605V9.82459C93.4961 7.5442 95.2739 6.03591 97.7665 6.03591C99.5444 6.03591 101.061 6.6105 102.298 7.63398L100.904 9.71685C99.8232 8.94475 98.76 8.4779 97.7316 8.4779C96.7032 8.4779 96.1629 8.96271 96.1629 9.5732V9.60912C96.1629 10.4351 96.6858 10.7044 98.7949 11.261C101.27 11.9254 102.664 12.8412 102.664 15.0318V15.0677Z" fill="#EF4D25"/>
<path d="M107.8 18.7845H105.116V6.21547H107.8V18.7845Z" fill="#EF4D25"/>
<path d="M123.277 12.5C123.277 16.0732 120.541 19 116.776 19C113.011 19 110.309 16.1091 110.309 12.5359V12.5C110.309 8.9268 113.046 6 116.811 6C120.576 6 123.277 8.89088 123.277 12.4641V12.5ZM120.471 12.5359V12.5C120.471 10.3453 118.937 8.54972 116.776 8.54972C114.614 8.54972 113.115 10.3094 113.115 12.4641V12.5C113.115 14.6547 114.649 16.4503 116.811 16.4503C118.972 16.4503 120.471 14.6906 120.471 12.5359Z" fill="#EF4D25"/>
<path d="M136.5 18.7845H134.217L128.308 10.7942V18.7845H125.658V6.21547H128.133L133.851 13.9544V6.21547H136.5V18.7845Z" fill="#EF4D25"/>
</g>
</g>
<defs>
<linearGradient id="paint0_linear_71_1762" x1="0.499752" y1="13.5" x2="28.5" y2="13.5" gradientUnits="userSpaceOnUse">
<stop stop-color="#F16E26"/>
<stop offset="1" stop-color="#EE4A24"/>
</linearGradient>
</defs>
</svg>
